<?xml version="1.0" encoding="UTF-8"?>
<svg xmlns="http://www.w3.org/2000/svg" xmlns:xlink="http://www.w3.org/1999/xlink" viewBox="0 0 2000 2000">
  <defs>
    <style>
      .cls-1 {
        fill: url(#linear-gradient-2);
      }

      .cls-2 {
        fill: url(#linear-gradient-9);
      }

      .cls-2, .cls-3, .cls-4, .cls-5 {
        mix-blend-mode: multiply;
      }

      .cls-6 {
        fill: url(#linear-gradient-4);
      }

      .cls-7 {
        fill: url(#linear-gradient-3);
      }

      .cls-8 {
        fill: url(#linear-gradient-5);
      }

      .cls-9 {
        isolation: isolate;
      }

      .cls-3 {
        fill: url(#linear-gradient-8);
      }

      .cls-10 {
        fill: url(#New_Gradient_Swatch_470);
        mix-blend-mode: soft-light;
      }

      .cls-11 {
        fill: url(#linear-gradient-7);
      }

      .cls-4 {
        fill: url(#White_Black);
      }

      .cls-12 {
        fill: url(#linear-gradient);
      }

      .cls-5 {
        fill: url(#linear-gradient-6);
      }
    </style>
    <linearGradient id="linear-gradient" x1="962.77" y1="1213.76" x2="1159.04" y2="664.99" gradientUnits="userSpaceOnUse">
      <stop offset=".1" stop-color="#00b7d4"/>
      <stop offset="1" stop-color="#0079b2"/>
    </linearGradient>
    <linearGradient id="linear-gradient-2" x1="658.19" y1="1457.01" x2="1407.05" y2="706.72" gradientUnits="userSpaceOnUse">
      <stop offset="0" stop-color="#00dfff"/>
      <stop offset=".54" stop-color="#00b9ea"/>
      <stop offset=".7" stop-color="#009ad9"/>
    </linearGradient>
    <linearGradient id="linear-gradient-3" x1="1114.38" y1="1417.59" x2="1176.26" y2="819.38" gradientUnits="userSpaceOnUse">
      <stop offset=".1" stop-color="#00dfff"/>
      <stop offset="1" stop-color="#009ad9"/>
    </linearGradient>
    <linearGradient id="linear-gradient-4" x1="577.52" y1="1167.43" x2="1372.35" y2="483.7" gradientUnits="userSpaceOnUse">
      <stop offset=".05" stop-color="#00dfff"/>
      <stop offset=".24" stop-color="#00c4f2"/>
      <stop offset=".43" stop-color="#00b1ea"/>
      <stop offset=".63" stop-color="#00a5e4"/>
      <stop offset=".83" stop-color="#00a2e3"/>
    </linearGradient>
    <linearGradient id="linear-gradient-5" x1="628.68" y1="1235.38" x2="1059.93" y2="546.85" gradientUnits="userSpaceOnUse">
      <stop offset="0" stop-color="#00dfff"/>
      <stop offset=".47" stop-color="#00c0f0"/>
      <stop offset="1" stop-color="#00a2e3"/>
    </linearGradient>
    <linearGradient id="linear-gradient-6" x1="866.88" y1="956.87" x2="1080.01" y2="502.38" gradientUnits="userSpaceOnUse">
      <stop offset=".3" stop-color="#fff"/>
      <stop offset="1" stop-color="#000"/>
    </linearGradient>
    <linearGradient id="linear-gradient-7" x1="1257.62" y1="1529.4" x2="1333.26" y2="1016.88" gradientUnits="userSpaceOnUse">
      <stop offset=".31" stop-color="#00dfff"/>
      <stop offset=".46" stop-color="#00d5f9"/>
      <stop offset=".72" stop-color="#00bcec"/>
      <stop offset="1" stop-color="#009ad9"/>
    </linearGradient>
    <linearGradient id="New_Gradient_Swatch_470" data-name="New Gradient Swatch 470" x1="1424.41" y1="902.09" x2="1503.77" y2="1149.14" gradientUnits="userSpaceOnUse">
      <stop offset="0" stop-color="#b8c9d8"/>
      <stop offset="1" stop-color="#007db6"/>
    </linearGradient>
    <linearGradient id="linear-gradient-8" x1="1041.5" y1="1111.77" x2="1103.38" y2="513.55" gradientUnits="userSpaceOnUse">
      <stop offset=".24" stop-color="#fff"/>
      <stop offset=".31" stop-color="#f7f7f7"/>
      <stop offset=".41" stop-color="#e2e2e2"/>
      <stop offset=".53" stop-color="silver"/>
      <stop offset=".66" stop-color="#919191"/>
      <stop offset=".81" stop-color="#545454"/>
      <stop offset=".97" stop-color="#0c0c0c"/>
      <stop offset="1" stop-color="#000"/>
    </linearGradient>
    <linearGradient id="White_Black" data-name="White, Black" x1="967.27" y1="995.13" x2="967.27" y2="673.9" gradientUnits="userSpaceOnUse">
      <stop offset="0" stop-color="#fff"/>
      <stop offset="1" stop-color="#000"/>
    </linearGradient>
    <linearGradient id="linear-gradient-9" x1="1258.07" y1="967.86" x2="952.94" y2="613.61" gradientUnits="userSpaceOnUse">
      <stop offset=".16" stop-color="#fff"/>
      <stop offset=".32" stop-color="#bcbcbc"/>
      <stop offset=".69" stop-color="#181818"/>
      <stop offset=".74" stop-color="#000"/>
    </linearGradient>
  </defs>
  <g class="cls-9">
    <g id="Layer_2" data-name="Layer 2">
      <g>
        <path class="cls-12" d="M613.78,1266.42c-29.46,0-56.16-5.68-77.21-16.41-45.83-22.5-74.26-66.97-76.03-118.93-1.79-52.28,24.08-99.08,69.19-125.18,21.04-12.16,45.03-18.59,69.37-18.59s49.6,6.73,70.96,19.5c-3.95-12.89-6.39-26.77-7.08-40.35-2.18-48.54,16.05-92.85,52.69-128.13l.35-.34.15-.06c30.51-27.54,69.73-42.71,110.42-42.71,31.92,0,62.82,9.23,89.47,26.72,30.52-88.24,113.46-147.41,206.88-147.41,61.42,0,120.43,26.04,161.89,71.44,41.16,45.06,61.14,103.7,56.36,165.27,7.28-.95,14.68-1.44,21.99-1.44,78.33,0,148.07,53.32,169.61,129.67,4.95,17.53,7.17,36.87,6.42,55.95l.33.32-.17,1.2-.25.37c-1.01,13.93-2.62,26.26-7.16,40.95-13.06,45.71-46.85,86-90.38,107.78l-.33.38-.73.17-.04-.08c-.49.3-1.35.71-2.89,1.44l-4.7,2.24-.14-.17c-21.63,9.56-43.12,14.26-67.55,14.79-.3,0-153.11.09-249.71.09-58.03,0-72.48,0-76.52-.14l-.79.08h-2.35v-.18c-37.86-.57-65.58-10.88-82.4-30.64-16.76-19.69-22.38-48.07-16.71-84.35,10.96-87.65,112.89-245.59,227.88-317.81l3.22-2.02,5.92,50.42c21.13-41.27,47.52-79.47,78.52-113.62-47.16,5.55-94.17,15.4-139.83,29.3l43.72,19.08-4.08,2.38c-164.86,96.52-232.28,197.2-286.45,278.1-48.01,71.69-85.91,128.29-170.99,157.45-25.36,8.68-54.07,13.46-80.84,13.46Z"/>
        <g>
          <path class="cls-1" d="M1338.56,914.02c4.93-54.32-9.91-104.49-37.97-144.59-39.35-56.16-104.63-92.49-177.64-92.49-95.66,0-177.02,62.13-205.62,148.75-61.24-41.87-143.69-36.67-199.79,14.24-.06.07-.15.14-.2.14-17.05,16.41-30.1,33.46-40.32,58.1,0,0-9.83,21.89-11.56,51.72-1.29,18.34,1.45,41.32,8.98,62.54-42.42-28.27-98.26-30.58-143.51-4.44-90.66,52.47-91,183.71,0,236.34,17.39,10.05,41.4,17.1,68.92,19.08,13.95,1.02,28.81.75,44.14-1.16,57.4-6.98,121.93-35.84,172.43-100.72,10.33-13.26,20.32-27.65,30.67-42.83,58.28-86.49,124.31-198.63,303.78-303.34l-45.31-19.77c49.76-15.59,100.95-26.35,152.81-32.02-6.5,6.98-12.8,14.09-18.82,21.42-26.41,31.68-48.98,66.43-67.26,103.52-5.4-45.98-.96-8.14-6.42-54.6-164.77,103.39-347.4,427.24-127.88,428.4q.04.06.11.06c0,.09.08.09.08.09q.08.06.14.06h323.57c96.47,0,175.1-78.15,175.1-175.1,0-103.27-90.31-187.9-198.43-173.39Z"/>
          <path class="cls-7" d="M1333.69,1262.51h-295.38q-.06,0-.14-.06s-.08,0-.08-.09q-.06,0-.11-.06c-219.52-1.16-36.89-325.01,127.88-428.4-76.51,130.62-40.93,297.98,82.03,386.25.14.06.27.2.41.27,20.21,14.52,42.16,26.28,65.34,35.23,6.65,2.53,13.35,4.87,20.05,6.85Z"/>
          <path class="cls-6" d="M1150.86,815.34c-103.59,60.43-169.41,123.38-217.63,182.36-35.52,43.24-61.53,84.44-86.15,120.98-10.35,15.18-20.34,29.56-30.67,42.83-50.5,64.88-115.03,93.74-172.43,100.72-15.32,1.91-30.19,2.18-44.14,1.16-27.51-1.98-51.52-9.03-68.92-19.08-91-52.63-90.66-183.87,0-236.34,45.24-26.14,101.09-23.82,143.51,4.44-7.53-21.22-10.27-44.2-8.98-62.54,1.73-29.83,11.56-51.72,11.56-51.72,10.22-24.64,23.27-41.69,40.32-58.1.05,0,.14-.07.2-.14,56.1-50.91,138.55-56.1,199.79-14.24-3.78,11.4-.11,23.94,9.21,31.53,9.3,7.57,22.34,8.61,32.74,2.59,46.18-26.74,95.24-48.29,146.28-64.22l45.31,19.77Z"/>
          <path class="cls-8" d="M1150.86,815.34c-212.53,124.43-264.39,256.15-334.45,346.17-88.23,113.33-223.08,118.92-285.48,82.8-91-52.63-90.66-183.87,0-236.34,45.24-26.14,101.09-23.82,143.51,4.44,0,.02,0,.06.03.1,9.28,26.19,31.43,45.79,58.57,51.81,95.7,21.25,106.32-125.85,417.83-248.98Z"/>
          <path class="cls-5" d="M708.68,978.68c82.67-8.69,170.54,4.81,252.24-12.97,45.3-49.42,104.87-100.75,189.94-150.37l-45.31-19.77c-51.04,15.94-100.1,37.48-146.28,64.22-10.39,6.02-23.44,4.98-32.74-2.59-9.32-7.58-12.99-20.12-9.21-31.53-61.24-41.87-143.69-36.67-199.79,14.24-.06.07-.15.14-.2.14-17.05,16.41-30.1,33.46-40.32,58.1,0,0-9.83,21.89-11.56,51.72-.71,10.07-.16,21.55,1.69,33.35,13.96-1.65,27.86-3.11,41.54-4.55Z"/>
          <path class="cls-11" d="M1536.78,1096.37q.06.06,0,.15c-.68,9.62-1.78,23.76-7.11,41.05-.29,1.09-.63,2.19-1.03,3.29,0,.21-.07.33-.13.53-2.2,6.53-3.98,11.42-7.11,18.27-14.78,33.93-44,65.79-80.89,84.24-.2.06-.34.21-.55.27-.06,0-.06.07-.13.07-2.06,1.03-4.18,1.98-6.32,3-.05-.06-.05,0-.12,0-18.11,7.92-35.67,12.28-46.8,13.42-.17.09-3.7.48-3.91.48-20.76,2.81-45.48,1.34-69.04-5.48-168.67-65.19-239.24-265.7-147.78-421.76,5.47,46.45,1.02,8.62,6.42,54.6-27.44,40.23-17.17,95.05,23.06,122.55,38.67,26.17,131.46,33.49,143.21-97.03,9.13-1.36,24.93-1.88,30.52-1.44,10.23,0,29.89,3.45,31.2,4.1,1.59.28,3.14.69,4.7,1.1.1,0,.22,0,.28.06,1.46.31,7.68,2.08,10.68,3.08,12.4,4.29,14.71,5.43,24.91,10.2,45.75,23.49,76.68,63.23,89.65,109v.15c4.51,15.07,7.24,35.12,6.29,56.1Z"/>
          <path class="cls-10" d="M1524.83,1095.8v.3c-.6,8.21-1.62,21.8-6.59,37.91-.36,1.2-.54,1.91-.84,2.63l-.72,2.04v.36c-1.08,3.05-1.98,5.69-3.12,8.44,16.18-95.95-39.05-189.51-130.87-221.73,5.69.72,11.03,1.68,13.24,2.15l.55.24s1.85.36,1.91.36l.12.12,3.95.84.77.18c1.67.48,6.41,1.8,8.92,2.63,11.14,3.83,13.3,4.85,22.4,9.1l1.2.6c40.49,20.78,69.95,56.24,82.77,99.78l.48,1.92c4.49,15.03,6.59,34.02,5.81,52.1Z"/>
          <path class="cls-3" d="M1143.08,1081.5c-28.56-79.29-22.7-169.94,22.78-247.6-101.86,63.91-210.5,212.05-226.78,316.15,59.17-45.22,130.09-62.25,204-68.56Z"/>
          <path class="cls-4" d="M783.68,1058.23c41.58-9.35,83.36-17.8,124.6-28.5,50.08-67.54,119.26-142.18,242.58-214.38-248.74,98.32-305.63,211.92-367.18,242.88Z"/>
          <path class="cls-2" d="M1229.79,1098.43c50.35-26.13,102.33-49.99,151.73-77.86,34.45-19.44,72.72-33.17,105.44-55.58-13.06-13.31-28.47-24.8-46.12-33.87-10.2-4.77-12.51-5.91-24.91-10.2-3-1-9.21-2.77-10.68-3.08-.05-.06-.18-.06-.28-.06-1.56-.41-3.12-.81-4.7-1.1-1.32-.65-20.98-4.1-31.2-4.1-5.59-.44-21.38.07-30.52,1.44-11.75,130.52-104.54,123.2-143.21,97.03-40.23-27.5-50.5-82.32-23.06-122.55-5.4-45.98-.96-8.14-6.42-54.6-55.85,95.3-51.19,207.13-.76,294.64,22.5-10.89,45.57-20.19,64.69-30.11Z"/>
        </g>
      </g>
    </g>
  </g>
</svg>